<svg width="28" height="28" viewBox="0 0 28 28" fill="none" xmlns="http://www.w3.org/2000/svg">
<path d="M22.1665 12.8332H15.1665V5.83317C15.1665 5.18917 14.6438 4.6665 13.9998 4.6665C13.3558 4.6665 12.8332 5.18917 12.8332 5.83317V12.8332H5.83317C5.18917 12.8332 4.6665 13.3558 4.6665 13.9998C4.6665 14.6438 5.18917 15.1665 5.83317 15.1665H12.8332V22.1665C12.8332 22.8105 13.3558 23.3332 13.9998 23.3332C14.6438 23.3332 15.1665 22.8105 15.1665 22.1665V15.1665H22.1665C22.8105 15.1665 23.3332 14.6438 23.3332 13.9998C23.3332 13.3558 22.8105 12.8332 22.1665 12.8332Z" fill="url(#paint0_linear_659_3607)"/>
<defs>
<linearGradient id="paint0_linear_659_3607" x1="13.9998" y1="4.6665" x2="13.9998" y2="23.3332" gradientUnits="userSpaceOnUse">
<stop stop-color="#6DC3F2"/>
<stop offset="1" stop-color="#0289F2"/>
</linearGradient>
</defs>
</svg>
