<svg width="19" height="21" viewBox="0 0 19 21" fill="none" xmlns="http://www.w3.org/2000/svg">
<path d="M15.3228 10.9754C15.3136 9.27367 16.0833 7.98926 17.6412 7.04335C16.7695 5.79604 15.4527 5.10979 13.7138 4.97532C12.0678 4.84549 10.2687 5.93515 9.61025 5.93515C8.91472 5.93515 7.31965 5.02169 6.06771 5.02169C3.48035 5.06342 0.730713 7.08508 0.730713 11.198C0.730713 12.4128 0.953281 13.6678 1.39842 14.9631C1.99193 16.6648 4.13415 20.8379 6.3691 20.7684C7.53758 20.7406 8.36294 19.9384 9.88382 19.9384C11.3583 19.9384 12.1234 20.7684 13.4264 20.7684C15.6799 20.7359 17.6181 16.943 18.1838 15.2366C15.1605 13.8131 15.3228 11.0635 15.3228 10.9754ZM12.6984 3.3617C13.9642 1.85937 13.8483 0.491504 13.8112 0C12.6937 0.0649156 11.4001 0.760441 10.6628 1.61825C9.85136 2.53635 9.37377 3.67237 9.47578 4.95214C10.686 5.04487 11.7896 4.42354 12.6984 3.3617Z" fill="black"/>
</svg>
