<svg width="16" height="8" viewBox="0 0 16 8" fill="none" xmlns="http://www.w3.org/2000/svg">
<path d="M0.126886 0.998464C0.126375 0.764812 0.217395 0.538376 0.384145 0.358464C0.478044 0.257205 0.593365 0.173504 0.723501 0.112152C0.853638 0.0507997 0.996032 0.0130034 1.14253 0.000927526C1.28903 -0.0111483 1.43676 0.00273368 1.57725 0.0417782C1.71774 0.0808226 1.84823 0.144262 1.96126 0.228464L7.95652 4.70846L13.963 0.388465C14.0774 0.305399 14.209 0.243367 14.3503 0.205935C14.4916 0.168503 14.6398 0.15641 14.7864 0.170349C14.933 0.184288 15.075 0.223985 15.2043 0.287159C15.3337 0.350332 15.4478 0.435737 15.5401 0.538464C15.6419 0.64193 15.7187 0.763096 15.7657 0.894358C15.8126 1.02562 15.8287 1.16415 15.813 1.30124C15.7972 1.43833 15.75 1.57103 15.6741 1.69102C15.5983 1.811 15.4955 1.91567 15.3723 1.99846L8.66118 6.82846C8.46104 6.97555 8.21 7.05595 7.95092 7.05595C7.69185 7.05595 7.4408 6.97555 7.24066 6.82846L0.529553 1.82846C0.394194 1.72815 0.287191 1.60071 0.21723 1.4565C0.147267 1.31229 0.116316 1.15537 0.126886 0.998464Z" fill="#AEAEAE" fill-opacity="0.7"/>
</svg>
