<svg width="20" height="21" viewBox="0 0 20 21" fill="none" xmlns="http://www.w3.org/2000/svg">
<path d="M17.255 11.1541L13.9225 14.4866C13.76 14.6491 13.5467 14.7307 13.3333 14.7307C13.12 14.7307 12.9066 14.6491 12.7441 14.4866C12.4183 14.1607 12.4183 13.634 12.7441 13.3082L14.6549 11.3974H3.33333C2.8725 11.3974 2.5 11.0241 2.5 10.5641C2.5 10.1041 2.8725 9.73072 3.33333 9.73072H14.6549L12.7441 7.81992C12.4183 7.49408 12.4183 6.96736 12.7441 6.64153C13.07 6.3157 13.5967 6.3157 13.9225 6.64153L17.255 9.97405C17.3325 10.0516 17.3934 10.1432 17.4359 10.2457C17.5201 10.449 17.5201 10.6791 17.4359 10.8825C17.3934 10.985 17.3325 11.0766 17.255 11.1541Z" fill="url(#paint0_linear_1_21002)"/>
<defs>
<linearGradient id="paint0_linear_1_21002" x1="9.99952" y1="6.39716" x2="9.99952" y2="14.7307" gradientUnits="userSpaceOnUse">
<stop stop-color="#6DC3F2"/>
<stop offset="1" stop-color="#0289F2"/>
</linearGradient>
</defs>
</svg>
