<svg width="25" height="25" viewBox="0 0 25 25" fill="none" xmlns="http://www.w3.org/2000/svg">
<path d="M21.1919 12.7871C21.1539 12.8791 21.099 12.962 21.03 13.031L17.03 17.031C16.884 17.177 16.692 17.251 16.5 17.251C16.308 17.251 16.116 17.178 15.97 17.031C15.677 16.738 15.677 16.263 15.97 15.97L18.6899 13.25H4.5C4.086 13.25 3.75 12.914 3.75 12.5C3.75 12.086 4.086 11.75 4.5 11.75H18.689L15.969 9.03005C15.676 8.73705 15.676 8.26202 15.969 7.96902C16.262 7.67602 16.737 7.67602 17.03 7.96902L21.03 11.969C21.099 12.038 21.1539 12.1209 21.1919 12.2129C21.2679 12.3969 21.2679 12.6031 21.1919 12.7871Z" fill="white"/>
</svg>
