<svg width="22" height="22" viewBox="0 0 22 22" fill="none" xmlns="http://www.w3.org/2000/svg">
<path d="M12.9865 18.5645C12.5685 19.2804 11.8278 19.7085 11.0046 19.7085C10.1815 19.7085 9.43987 19.2804 9.02279 18.5645C8.94029 18.4224 8.94028 18.2473 9.02187 18.1052C9.10345 17.9632 9.2547 17.8752 9.4197 17.8752H12.5914C12.7554 17.8752 12.9067 17.9632 12.9892 18.1052C13.0717 18.2473 13.069 18.4233 12.9865 18.5645ZM18.7 16.216C18.6817 16.1885 16.9584 14.0068 16.9584 11.4585V8.25015C16.9584 8.12549 16.9538 8.00358 16.9465 7.88166C16.9382 7.75333 16.852 7.68549 16.8154 7.65982C16.7824 7.63691 16.6953 7.59382 16.5825 7.6314C16.2764 7.73407 15.9482 7.78906 15.6063 7.7909C14.047 7.8019 12.6436 6.62766 12.4126 5.08582C12.2962 4.30482 12.4548 3.56599 12.8251 2.95365C12.9205 2.79599 12.8609 2.58607 12.6849 2.53474C11.7352 2.25515 10.6783 2.20106 9.6012 2.45681C6.88604 3.10215 5.05086 5.65507 5.05086 8.44632V11.4585C5.05086 14.0068 3.32754 16.1885 3.3092 16.216C3.1992 16.3535 3.18087 16.5368 3.25421 16.7018C3.33671 16.8577 3.49254 16.9585 3.6667 16.9585H18.3334C18.5167 16.9585 18.6725 16.8577 18.755 16.7018C18.8284 16.5368 18.81 16.3535 18.7 16.216ZM15.5834 2.75015C14.5705 2.75015 13.75 3.57057 13.75 4.58349C13.75 5.5964 14.5705 6.41682 15.5834 6.41682C16.5963 6.41682 17.4167 5.5964 17.4167 4.58349C17.4167 3.57057 16.5963 2.75015 15.5834 2.75015Z" fill="white"/>
</svg>
