<svg width="179" height="20" viewBox="0 0 179 20" fill="none" xmlns="http://www.w3.org/2000/svg">
<path d="M7.644 6.602C8.632 6.602 9.48567 6.784 10.205 7.148C10.9243 7.512 11.4703 8.02333 11.843 8.682C12.2243 9.332 12.415 10.0903 12.415 10.957C12.415 11.6503 12.2937 12.3133 12.051 12.946C11.817 13.5787 11.4747 14.0943 11.024 14.493C10.582 14.8917 10.0577 15.091 9.451 15.091C9.009 15.091 8.66233 14.9957 8.411 14.805C8.15967 14.6057 8.00367 14.3283 7.943 13.973C7.67433 14.3197 7.33633 14.5927 6.929 14.792C6.52167 14.9913 6.097 15.091 5.655 15.091C4.98767 15.091 4.46333 14.8917 4.082 14.493C3.70933 14.0857 3.523 13.5353 3.523 12.842C3.523 12.1833 3.65733 11.568 3.926 10.996C4.20333 10.424 4.589 9.969 5.083 9.631C5.577 9.28433 6.13167 9.111 6.747 9.111C7.501 9.111 8.02967 9.36667 8.333 9.878L8.45 9.228H9.737L9.087 12.946C9.061 13.128 9.048 13.2883 9.048 13.427C9.048 13.6523 9.09133 13.8213 9.178 13.934C9.27333 14.0467 9.438 14.103 9.672 14.103C10.0013 14.103 10.283 13.9427 10.517 13.622C10.751 13.2927 10.9243 12.8897 11.037 12.413C11.1583 11.9363 11.219 11.4727 11.219 11.022C11.219 9.92133 10.8983 9.08067 10.257 8.5C9.61567 7.91933 8.684 7.629 7.462 7.629C6.43933 7.629 5.52067 7.87167 4.706 8.357C3.9 8.84233 3.26733 9.50967 2.808 10.359C2.34867 11.2083 2.119 12.153 2.119 13.193C2.119 14.3023 2.44833 15.1473 3.107 15.728C3.76567 16.3087 4.706 16.599 5.928 16.599C6.75133 16.599 7.47067 16.4473 8.086 16.144L8.281 17.132C7.49233 17.47 6.60833 17.639 5.629 17.639C4.68433 17.639 3.85667 17.4613 3.146 17.106C2.43533 16.7507 1.885 16.2437 1.495 15.585C1.105 14.935 0.91 14.1767 0.91 13.31C0.91 12.0707 1.196 10.9397 1.768 9.917C2.34867 8.89433 3.15033 8.08833 4.173 7.499C5.19567 6.901 6.35267 6.602 7.644 6.602ZM6.11 13.947C6.474 13.947 6.80333 13.843 7.098 13.635C7.40133 13.4183 7.63967 13.1367 7.813 12.79C7.98633 12.4347 8.073 12.0577 8.073 11.659C8.073 11.243 7.956 10.905 7.722 10.645C7.49667 10.3763 7.176 10.242 6.76 10.242C6.38733 10.242 6.058 10.359 5.772 10.593C5.49467 10.8183 5.278 11.113 5.122 11.477C4.97467 11.841 4.901 12.2223 4.901 12.621C4.901 13.0283 5.00067 13.3533 5.2 13.596C5.39933 13.83 5.70267 13.947 6.11 13.947ZM22.7161 7.72C23.2794 7.72 23.7821 7.837 24.2241 8.071C24.6747 8.305 25.0257 8.65167 25.2771 9.111C25.5371 9.57033 25.6671 10.125 25.6671 10.775V15H24.1981V10.996C24.1981 10.3547 24.0377 9.865 23.7171 9.527C23.3964 9.18033 22.9587 9.007 22.4041 9.007C21.8494 9.007 21.4074 9.18033 21.0781 9.527C20.7574 9.865 20.5971 10.3547 20.5971 10.996V15H19.1281V10.996C19.1281 10.3547 18.9677 9.865 18.6471 9.527C18.3264 9.18033 17.8887 9.007 17.3341 9.007C16.7794 9.007 16.3374 9.18033 16.0081 9.527C15.6874 9.865 15.5271 10.3547 15.5271 10.996V15H14.0451V7.837H15.5271V8.656C15.7697 8.36133 16.0774 8.13167 16.4501 7.967C16.8227 7.80233 17.2214 7.72 17.6461 7.72C18.2181 7.72 18.7294 7.84133 19.1801 8.084C19.6307 8.32667 19.9774 8.67767 20.2201 9.137C20.4367 8.70367 20.7747 8.36133 21.2341 8.11C21.6934 7.85 22.1874 7.72 22.7161 7.72ZM26.7989 11.386C26.7989 10.6667 26.9462 10.0297 27.2409 9.475C27.5442 8.92033 27.9516 8.49133 28.4629 8.188C28.9829 7.876 29.5549 7.72 30.1789 7.72C30.7422 7.72 31.2319 7.83267 31.6479 8.058C32.0726 8.27467 32.4106 8.54767 32.6619 8.877V7.837H34.1569V15H32.6619V13.934C32.4106 14.272 32.0682 14.5537 31.6349 14.779C31.2016 15.0043 30.7076 15.117 30.1529 15.117C29.5376 15.117 28.9742 14.961 28.4629 14.649C27.9516 14.3283 27.5442 13.8863 27.2409 13.323C26.9462 12.751 26.7989 12.1053 26.7989 11.386ZM32.6619 11.412C32.6619 10.918 32.5579 10.489 32.3499 10.125C32.1506 9.761 31.8862 9.48367 31.5569 9.293C31.2276 9.10233 30.8722 9.007 30.4909 9.007C30.1096 9.007 29.7542 9.10233 29.4249 9.293C29.0956 9.475 28.8269 9.748 28.6189 10.112C28.4196 10.4673 28.3199 10.892 28.3199 11.386C28.3199 11.88 28.4196 12.3133 28.6189 12.686C28.8269 13.0587 29.0956 13.3447 29.4249 13.544C29.7629 13.7347 30.1182 13.83 30.4909 13.83C30.8722 13.83 31.2276 13.7347 31.5569 13.544C31.8862 13.3533 32.1506 13.076 32.3499 12.712C32.5579 12.3393 32.6619 11.906 32.6619 11.412ZM37.3254 8.89C37.5768 8.56067 37.9191 8.28333 38.3524 8.058C38.7858 7.83267 39.2754 7.72 39.8214 7.72C40.4454 7.72 41.0131 7.876 41.5244 8.188C42.0444 8.49133 42.4518 8.92033 42.7464 9.475C43.0411 10.0297 43.1884 10.6667 43.1884 11.386C43.1884 12.1053 43.0411 12.751 42.7464 13.323C42.4518 13.8863 42.0444 14.3283 41.5244 14.649C41.0131 14.961 40.4454 15.117 39.8214 15.117C39.2754 15.117 38.7901 15.0087 38.3654 14.792C37.9408 14.5667 37.5941 14.2893 37.3254 13.96V18.406H35.8434V7.837H37.3254V8.89ZM41.6804 11.386C41.6804 10.892 41.5764 10.4673 41.3684 10.112C41.1691 9.748 40.9004 9.475 40.5624 9.293C40.2331 9.10233 39.8778 9.007 39.4964 9.007C39.1238 9.007 38.7684 9.10233 38.4304 9.293C38.1011 9.48367 37.8324 9.761 37.6244 10.125C37.4251 10.489 37.3254 10.918 37.3254 11.412C37.3254 11.906 37.4251 12.3393 37.6244 12.712C37.8324 13.076 38.1011 13.3533 38.4304 13.544C38.7684 13.7347 39.1238 13.83 39.4964 13.83C39.8778 13.83 40.2331 13.7347 40.5624 13.544C40.9004 13.3447 41.1691 13.0587 41.3684 12.686C41.5764 12.3133 41.6804 11.88 41.6804 11.386ZM43.9 11.386C43.9 10.6667 44.0473 10.0297 44.342 9.475C44.6453 8.92033 45.0527 8.49133 45.564 8.188C46.084 7.876 46.6603 7.72 47.293 7.72C47.761 7.72 48.2203 7.824 48.671 8.032C49.1303 8.23133 49.4943 8.5 49.763 8.838V5.38H51.258V15H49.763V13.921C49.5203 14.2677 49.1823 14.5537 48.749 14.779C48.3243 15.0043 47.8347 15.117 47.28 15.117C46.656 15.117 46.084 14.961 45.564 14.649C45.0527 14.3283 44.6453 13.8863 44.342 13.323C44.0473 12.751 43.9 12.1053 43.9 11.386ZM49.763 11.412C49.763 10.918 49.659 10.489 49.451 10.125C49.2517 9.761 48.9873 9.48367 48.658 9.293C48.3287 9.10233 47.9733 9.007 47.592 9.007C47.2107 9.007 46.8553 9.10233 46.526 9.293C46.1967 9.475 45.928 9.748 45.72 10.112C45.5207 10.4673 45.421 10.892 45.421 11.386C45.421 11.88 45.5207 12.3133 45.72 12.686C45.928 13.0587 46.1967 13.3447 46.526 13.544C46.864 13.7347 47.2193 13.83 47.592 13.83C47.9733 13.83 48.3287 13.7347 48.658 13.544C48.9873 13.3533 49.2517 13.076 49.451 12.712C49.659 12.3393 49.763 11.906 49.763 11.412ZM60.1595 5.965V15H58.6775V11.048H54.4265V15H52.9445V5.965H54.4265V9.839H58.6775V5.965H60.1595ZM68.8445 16.638L67.2585 14.922C66.8685 15.0347 66.4395 15.091 65.9715 15.091C65.1309 15.091 64.3552 14.896 63.6445 14.506C62.9425 14.1073 62.3835 13.557 61.9675 12.855C61.5602 12.1443 61.3565 11.347 61.3565 10.463C61.3565 9.579 61.5602 8.786 61.9675 8.084C62.3835 7.382 62.9425 6.836 63.6445 6.446C64.3552 6.04733 65.1309 5.848 65.9715 5.848C66.8209 5.848 67.5965 6.04733 68.2985 6.446C69.0092 6.836 69.5682 7.382 69.9755 8.084C70.3829 8.786 70.5865 9.579 70.5865 10.463C70.5865 11.295 70.4045 12.049 70.0405 12.725C69.6852 13.3923 69.1912 13.9297 68.5585 14.337L70.7295 16.638H68.8445ZM62.8775 10.463C62.8775 11.1303 63.0075 11.7197 63.2675 12.231C63.5362 12.7337 63.9045 13.1237 64.3725 13.401C64.8405 13.6697 65.3735 13.804 65.9715 13.804C66.5695 13.804 67.1025 13.6697 67.5705 13.401C68.0385 13.1237 68.4025 12.7337 68.6625 12.231C68.9312 11.7197 69.0655 11.1303 69.0655 10.463C69.0655 9.79567 68.9312 9.21067 68.6625 8.708C68.4025 8.20533 68.0385 7.81967 67.5705 7.551C67.1025 7.28233 66.5695 7.148 65.9715 7.148C65.3735 7.148 64.8405 7.28233 64.3725 7.551C63.9045 7.81967 63.5362 8.20533 63.2675 8.708C63.0075 9.21067 62.8775 9.79567 62.8775 10.463ZM77.7329 15.108C77.1089 15.108 76.5449 14.968 76.0409 14.688C75.5369 14.4 75.1409 14 74.8529 13.488C74.5649 12.968 74.4209 12.368 74.4209 11.688C74.4209 11.016 74.5689 10.42 74.8649 9.9C75.1609 9.38 75.5649 8.98 76.0769 8.7C76.5889 8.42 77.1609 8.28 77.7929 8.28C78.4249 8.28 78.9969 8.42 79.5089 8.7C80.0209 8.98 80.4249 9.38 80.7209 9.9C81.0169 10.42 81.1649 11.016 81.1649 11.688C81.1649 12.36 81.0129 12.956 80.7089 13.476C80.4049 13.996 79.9889 14.4 79.4609 14.688C78.9409 14.968 78.3649 15.108 77.7329 15.108ZM77.7329 13.92C78.0849 13.92 78.4129 13.836 78.7169 13.668C79.0289 13.5 79.2809 13.248 79.4729 12.912C79.6649 12.576 79.7609 12.168 79.7609 11.688C79.7609 11.208 79.6689 10.804 79.4849 10.476C79.3009 10.14 79.0569 9.888 78.7529 9.72C78.4489 9.552 78.1209 9.468 77.7689 9.468C77.4169 9.468 77.0889 9.552 76.7849 9.72C76.4889 9.888 76.2529 10.14 76.0769 10.476C75.9009 10.804 75.8129 11.208 75.8129 11.688C75.8129 12.4 75.9929 12.952 76.3529 13.344C76.7209 13.728 77.1809 13.92 77.7329 13.92ZM85.6133 8.28C86.1333 8.28 86.5973 8.388 87.0053 8.604C87.4213 8.82 87.7453 9.14 87.9773 9.564C88.2093 9.988 88.3253 10.5 88.3253 11.1V15H86.9693V11.304C86.9693 10.712 86.8213 10.26 86.5253 9.948C86.2293 9.628 85.8253 9.468 85.3133 9.468C84.8013 9.468 84.3933 9.628 84.0893 9.948C83.7933 10.26 83.6453 10.712 83.6453 11.304V15H82.2773V8.388H83.6453V9.144C83.8693 8.872 84.1533 8.66 84.4973 8.508C84.8493 8.356 85.2213 8.28 85.6133 8.28Z" fill="#1B1F26" fill-opacity="0.72"/>
<g clip-path="url(#clip0_648_9943)">
<path d="M108.5 3.85173C110.504 3.85173 110.739 3.86066 111.531 3.89639C112.263 3.92914 112.659 4.05121 112.924 4.15542C113.276 4.29238 113.526 4.45316 113.788 4.71516C114.05 4.97717 114.214 5.22727 114.348 5.5786C114.449 5.84359 114.574 6.23958 114.607 6.97201C114.642 7.76399 114.651 7.99921 114.651 10.003C114.651 12.0067 114.642 12.242 114.607 13.0339C114.574 13.7664 114.452 14.1624 114.348 14.4274C114.211 14.7787 114.05 15.0288 113.788 15.2908C113.526 15.5528 113.276 15.7166 112.924 15.8505C112.659 15.9518 112.263 16.0768 111.531 16.1096C110.739 16.1453 110.504 16.1542 108.5 16.1542C106.496 16.1542 106.261 16.1453 105.469 16.1096C104.737 16.0768 104.341 15.9547 104.076 15.8505C103.724 15.7136 103.474 15.5528 103.212 15.2908C102.95 15.0288 102.786 14.7787 102.652 14.4274C102.551 14.1624 102.426 13.7664 102.393 13.0339C102.358 12.242 102.349 12.0067 102.349 10.003C102.349 7.99921 102.358 7.76399 102.393 6.97201C102.426 6.23958 102.548 5.84359 102.652 5.5786C102.789 5.22727 102.95 4.97717 103.212 4.71516C103.474 4.45316 103.724 4.2894 104.076 4.15542C104.341 4.05419 104.737 3.92914 105.469 3.89639C106.261 3.85768 106.499 3.85173 108.5 3.85173ZM108.5 2.5C106.463 2.5 106.207 2.50893 105.407 2.54466C104.609 2.58039 104.064 2.70842 103.587 2.89301C103.093 3.08356 102.676 3.3426 102.259 3.75943C101.843 4.17626 101.587 4.59607 101.393 5.08734C101.208 5.56372 101.08 6.10858 101.045 6.90949C101.009 7.70742 101 7.96348 101 10C101 12.0365 101.009 12.2926 101.045 13.0935C101.08 13.8914 101.208 14.4363 101.393 14.9156C101.584 15.4099 101.843 15.8267 102.259 16.2435C102.676 16.6604 103.096 16.9164 103.587 17.11C104.064 17.2946 104.609 17.4226 105.409 17.4583C106.21 17.494 106.463 17.503 108.503 17.503C110.542 17.503 110.796 17.494 111.596 17.4583C112.394 17.4226 112.939 17.2946 113.419 17.11C113.913 16.9194 114.33 16.6604 114.747 16.2435C115.163 15.8267 115.419 15.4069 115.613 14.9156C115.798 14.4393 115.926 13.8944 115.961 13.0935C115.997 12.2926 116.006 12.0395 116.006 10C116.006 7.9605 115.997 7.70742 115.961 6.90651C115.926 6.10857 115.798 5.56372 115.613 5.08436C115.422 4.59012 115.163 4.17328 114.747 3.75645C114.33 3.33962 113.91 3.08356 113.419 2.89004C112.942 2.70544 112.397 2.57741 111.596 2.54168C110.793 2.50893 110.537 2.5 108.5 2.5Z" fill="black"/>
<path d="M108.5 6.15026C106.374 6.15026 104.647 7.87415 104.647 10.003C104.647 12.1318 106.371 13.8557 108.5 13.8557C110.629 13.8557 112.353 12.1318 112.353 10.003C112.353 7.87415 110.629 6.15026 108.5 6.15026ZM108.5 12.501C107.119 12.501 105.999 11.3815 105.999 10C105.999 8.6185 107.119 7.49901 108.5 7.49901C109.882 7.49901 111.001 8.6185 111.001 10C111.001 11.3815 109.882 12.501 108.5 12.501Z" fill="black"/>
<path d="M112.505 6.8946C113.001 6.8946 113.404 6.49203 113.404 5.99543C113.404 5.49884 113.001 5.09627 112.505 5.09627C112.008 5.09627 111.605 5.49884 111.605 5.99543C111.605 6.49203 112.008 6.8946 112.505 6.8946Z" fill="black"/>
</g>
<g clip-path="url(#clip1_648_9943)">
<path d="M132.775 2.5H130.185V12.7174C130.185 13.9348 129.19 14.9348 127.95 14.9348C126.711 14.9348 125.715 13.9348 125.715 12.7174C125.715 11.5217 126.688 10.5435 127.884 10.5V7.93479C125.25 7.97825 123.125 10.087 123.125 12.7174C123.125 15.3696 125.294 17.5 127.972 17.5C130.65 17.5 132.819 15.3478 132.819 12.7174V7.47825C133.793 8.17392 134.988 8.58696 136.25 8.60871V6.04348C134.302 5.97826 132.775 4.41304 132.775 2.5Z" fill="black"/>
</g>
<path d="M156.161 6.98797C156.166 7.11997 156.166 7.24597 156.166 7.37797C156.172 11.38 153.232 16 147.855 16C146.269 16 144.712 15.526 143.375 14.638C143.607 14.668 143.838 14.68 144.07 14.68C145.383 14.68 146.663 14.224 147.699 13.378C146.448 13.354 145.349 12.508 144.967 11.272C145.407 11.362 145.858 11.344 146.286 11.218C144.926 10.942 143.948 9.69998 143.942 8.25398C143.942 8.24198 143.942 8.22998 143.942 8.21798C144.347 8.45198 144.805 8.58398 145.268 8.59598C143.989 7.70797 143.589 5.93797 144.365 4.55196C145.852 6.44797 148.04 7.59397 150.39 7.71997C150.153 6.66997 150.477 5.56597 151.235 4.82196C152.41 3.67596 154.262 3.73596 155.373 4.95396C156.028 4.82196 156.658 4.56996 157.231 4.21596C157.011 4.91796 156.554 5.51197 155.946 5.88997C156.525 5.81797 157.093 5.65597 157.625 5.41597C157.231 6.02797 156.734 6.55597 156.161 6.98797Z" fill="black"/>
<g clip-path="url(#clip2_648_9943)">
<path d="M174.759 10.8301L175.147 8.27063H172.716V6.61044C172.716 5.91004 173.055 5.22694 174.144 5.22694H175.25V3.04794C175.25 3.04794 174.247 2.875 173.288 2.875C171.284 2.875 169.976 4.10112 169.976 6.3199V8.27063H167.75V10.8301H169.976V17.0178C170.423 17.0887 170.88 17.125 171.346 17.125C171.812 17.125 172.269 17.0887 172.716 17.0178V10.8301H174.759Z" fill="black"/>
</g>
<defs>
<clipPath id="clip0_648_9943">
<rect width="15" height="15" fill="white" transform="translate(101 2.5)"/>
</clipPath>
<clipPath id="clip1_648_9943">
<rect width="15" height="15" fill="white" transform="translate(122 2.5)"/>
</clipPath>
<clipPath id="clip2_648_9943">
<rect width="15" height="15" fill="white" transform="translate(164 2.5)"/>
</clipPath>
</defs>
</svg>
