<svg width="25" height="24" viewBox="0 0 25 24" fill="none" xmlns="http://www.w3.org/2000/svg">
<path d="M7.6999 6.12023V7.12023C8.05557 7.12023 8.38447 6.93132 8.56368 6.62411L7.6999 6.12023ZM9.3799 3.24023V2.24023C9.02423 2.24023 8.69533 2.42915 8.51612 2.73636L9.3799 3.24023ZM15.6199 3.24023L16.4837 2.73636C16.3045 2.42915 15.9756 2.24023 15.6199 2.24023V3.24023ZM17.2999 6.12023L16.4361 6.62411C16.6153 6.93132 16.9442 7.12023 17.2999 7.12023V6.12023ZM2.8999 18.3602H3.8999V8.52023H2.8999H1.8999V18.3602H2.8999ZM5.2999 6.12023V7.12023H7.6999V6.12023V5.12023H5.2999V6.12023ZM7.6999 6.12023L8.56368 6.62411L10.2437 3.74411L9.3799 3.24023L8.51612 2.73636L6.83612 5.61636L7.6999 6.12023ZM9.3799 3.24023V4.24023H15.6199V3.24023V2.24023H9.3799V3.24023ZM15.6199 3.24023L14.7561 3.74411L16.4361 6.62411L17.2999 6.12023L18.1637 5.61636L16.4837 2.73636L15.6199 3.24023ZM17.2999 6.12023V7.12023H19.6999V6.12023V5.12023H17.2999V6.12023ZM22.0999 8.52023H21.0999V18.3602H22.0999H23.0999V8.52023H22.0999ZM22.0999 18.3602H21.0999C21.0999 19.1334 20.4731 19.7602 19.6999 19.7602V20.7602V21.7602C21.5777 21.7602 23.0999 20.238 23.0999 18.3602H22.0999ZM19.6999 6.12023V7.12023C20.4731 7.12023 21.0999 7.74704 21.0999 8.52023H22.0999H23.0999C23.0999 6.64247 21.5777 5.12023 19.6999 5.12023V6.12023ZM2.8999 8.52023H3.8999C3.8999 7.74703 4.5267 7.12023 5.2999 7.12023V6.12023V5.12023C3.42213 5.12023 1.8999 6.64246 1.8999 8.52023H2.8999ZM5.2999 20.7602V19.7602C4.5267 19.7602 3.8999 19.1334 3.8999 18.3602H2.8999H1.8999C1.8999 20.238 3.42213 21.7602 5.2999 21.7602V20.7602ZM16.0999 12.8402H15.0999C15.0999 14.2762 13.9358 15.4402 12.4999 15.4402V16.4402V17.4402C15.0404 17.4402 17.0999 15.3807 17.0999 12.8402H16.0999ZM12.4999 16.4402V15.4402C11.064 15.4402 9.8999 14.2762 9.8999 12.8402H8.8999H7.8999C7.8999 15.3807 9.95939 17.4402 12.4999 17.4402V16.4402ZM8.8999 12.8402H9.8999C9.8999 11.4043 11.064 10.2402 12.4999 10.2402V9.24023V8.24023C9.95939 8.24023 7.8999 10.2997 7.8999 12.8402H8.8999ZM12.4999 9.24023V10.2402C13.9358 10.2402 15.0999 11.4043 15.0999 12.8402H16.0999H17.0999C17.0999 10.2997 15.0404 8.24023 12.4999 8.24023V9.24023ZM19.6999 20.7602V19.7602H5.2999V20.7602V21.7602H19.6999V20.7602Z" fill="#3C3C43" fill-opacity="0.29"/>
</svg>
