<svg width="20" height="20" viewBox="0 0 20 20" fill="none" xmlns="http://www.w3.org/2000/svg">
<path d="M15 5.83337H13.3333L12.785 4.18827C12.615 3.67744 12.1375 3.33337 11.5991 3.33337H8.40088C7.86255 3.33337 7.38497 3.67744 7.21497 4.18827L6.66667 5.83337H5C3.33333 5.83337 2.5 6.66671 2.5 8.33337V15C2.5 16.6667 3.33333 17.5 5 17.5H15C16.6667 17.5 17.5 16.6667 17.5 15V8.33337C17.5 6.66671 16.6667 5.83337 15 5.83337ZM10 14.1667C8.61917 14.1667 7.5 13.0475 7.5 11.6667C7.5 10.2859 8.61917 9.16671 10 9.16671C11.3808 9.16671 12.5 10.2859 12.5 11.6667C12.5 13.0475 11.3808 14.1667 10 14.1667ZM14.5833 9.58337C14.1233 9.58337 13.75 9.21004 13.75 8.75004C13.75 8.29004 14.1233 7.91671 14.5833 7.91671C15.0433 7.91671 15.4167 8.29004 15.4167 8.75004C15.4167 9.21004 15.0433 9.58337 14.5833 9.58337Z" fill="white"/>
</svg>
