<svg width="24" height="21" viewBox="0 0 24 21" fill="none" xmlns="http://www.w3.org/2000/svg">
<path d="M17.578 4.55002H6.38532C4.51988 4.55002 3.58716 5.40002 3.58716 7.10002V14.75C3.58716 16.45 4.51988 17.3 6.38532 17.3H17.578C19.4434 17.3 20.3762 16.45 20.3762 14.75V7.10002C20.3762 5.40002 19.4434 4.55002 17.578 4.55002ZM17.5229 8.46512L12.9415 11.5013C12.6542 11.6917 12.3174 11.7869 11.9817 11.7869C11.6459 11.7869 11.3082 11.6917 11.0218 11.5022L6.44043 8.46512C6.12797 8.25857 6.05891 7.85907 6.2865 7.57432C6.51315 7.29042 6.94859 7.22582 7.26385 7.43407L11.8455 10.4703C11.9276 10.5238 12.0367 10.5247 12.1187 10.4703L16.7004 7.43407C17.0147 7.22582 17.4511 7.29042 17.6777 7.57432C17.9053 7.85992 17.8353 8.25857 17.5229 8.46512Z" fill="#0F9BE9"/>
</svg>
