<svg width="25" height="24" viewBox="0 0 25 24" fill="none" xmlns="http://www.w3.org/2000/svg">
<path d="M21.8633 20.47L18.0223 16.629C19.3063 15.106 20.0833 13.143 20.0833 11C20.0833 6.175 16.1583 2.25 11.3333 2.25C6.50825 2.25 2.58325 6.175 2.58325 11C2.58325 15.825 6.50825 19.75 11.3333 19.75C13.4763 19.75 15.4393 18.973 16.9623 17.689L20.8032 21.53C20.9492 21.676 21.1413 21.75 21.3333 21.75C21.5253 21.75 21.7173 21.677 21.8633 21.53C22.1563 21.238 22.1563 20.763 21.8633 20.47ZM4.08325 11C4.08325 7.002 7.33525 3.75 11.3333 3.75C15.3313 3.75 18.5833 7.002 18.5833 11C18.5833 14.998 15.3313 18.25 11.3333 18.25C7.33525 18.25 4.08325 14.998 4.08325 11Z" fill="#A6A6A6"/>
</svg>
