<svg width="22" height="21" viewBox="0 0 22 21" fill="none" xmlns="http://www.w3.org/2000/svg">
<path fill-rule="evenodd" clip-rule="evenodd" d="M0.615234 10.558C0.615234 15.7213 4.36523 20.0144 9.26908 20.8847V13.3846H6.67293V10.5H9.26908V8.19235C9.26908 5.59619 10.9421 4.15389 13.3076 4.15389C14.0575 4.15389 14.8653 4.26927 15.6152 4.38465V7.0385H14.2883C13.0191 7.0385 12.7306 7.67312 12.7306 8.48081V10.5H15.4998L15.0383 13.3846H12.7306V20.8847C17.6345 20.0144 21.3845 15.7213 21.3845 10.558C21.3845 4.81462 16.7114 0.115435 10.9998 0.115435C5.28831 0.115435 0.615234 4.81462 0.615234 10.558H0.615234Z" fill="#1877F2"/>
</svg>
