<svg width="48" height="48" viewBox="0 0 48 48" fill="none" xmlns="http://www.w3.org/2000/svg">
<rect width="48" height="48" rx="24" fill="white" fill-opacity="0.8"/>
<rect x="0.5" y="0.5" width="47" height="47" rx="23.5" stroke="white" stroke-opacity="0.2"/>
<path d="M21.2917 18.5834C21.2917 20.6742 19.5908 22.3751 17.5 22.3751C15.4092 22.3751 13.7083 20.6742 13.7083 18.5834C13.7083 16.4926 15.4092 14.7917 17.5 14.7917C19.5908 14.7917 21.2917 16.4926 21.2917 18.5834ZM30.5 25.6251C28.4092 25.6251 26.7083 27.3259 26.7083 29.4167C26.7083 31.5076 28.4092 33.2084 30.5 33.2084C32.5908 33.2084 34.2917 31.5076 34.2917 29.4167C34.2917 27.3259 32.5908 25.6251 30.5 25.6251ZM34.5625 18.5834C34.5625 18.1349 34.1985 17.7709 33.75 17.7709H27.25C26.8015 17.7709 26.4375 18.1349 26.4375 18.5834C26.4375 19.0319 26.8015 19.3959 27.25 19.3959H33.75C34.1985 19.3959 34.5625 19.0319 34.5625 18.5834ZM21.5625 29.4167C21.5625 28.9682 21.1985 28.6042 20.75 28.6042H14.25C13.8015 28.6042 13.4375 28.9682 13.4375 29.4167C13.4375 29.8652 13.8015 30.2292 14.25 30.2292H20.75C21.1985 30.2292 21.5625 29.8652 21.5625 29.4167Z" fill="#FC9300"/>
</svg>
