<svg width="375" height="189" viewBox="0 0 375 189" fill="none" xmlns="http://www.w3.org/2000/svg">
<g opacity="0.25">
<path d="M339.07 123.93L328.406 134.594M321.271 129.236L337.877 123.474C338.9 123.12 339.881 124.101 339.526 125.123L333.765 141.729C333.37 142.867 331.772 142.898 331.334 141.777L328.697 135.038C328.565 134.701 328.299 134.435 327.962 134.304L321.224 131.667C320.102 131.228 320.133 129.63 321.271 129.236Z" stroke="#007AFF" stroke-width="2" stroke-linecap="round"/>
</g>
<path opacity="0.25" d="M320.316 141.656C320.316 141.656 247.311 201.367 179.199 180.064C99.2288 155.053 35.3271 100.388 45.5225 52.5769C53.541 14.9748 100.048 -17.2083 155.956 18.7156C195.273 43.9795 196.464 85.2999 182.758 105.683C132.32 180.696 -36.9998 126.545 -36.9998 126.545" stroke="#007AFF" stroke-width="2" stroke-dasharray="8 8"/>
</svg>
