<svg width="25" height="25" viewBox="0 0 25 25" fill="none" xmlns="http://www.w3.org/2000/svg">
<path d="M22.25 10.528C22.25 10.942 21.914 11.278 21.5 11.278H19.75V13.028C19.75 13.442 19.414 13.778 19 13.778C18.586 13.778 18.25 13.442 18.25 13.028V11.278H16.5C16.086 11.278 15.75 10.942 15.75 10.528C15.75 10.114 16.086 9.77795 16.5 9.77795H18.25V8.02795C18.25 7.61395 18.586 7.27795 19 7.27795C19.414 7.27795 19.75 7.61395 19.75 8.02795V9.77795H21.5C21.914 9.77795 22.25 10.114 22.25 10.528ZM10.509 11C12.715 11 14.509 9.206 14.509 7C14.509 4.794 12.715 3 10.509 3C8.30303 3 6.50903 4.794 6.50903 7C6.50903 9.206 8.30303 11 10.509 11ZM12.5 13H8.5C4.44 13 3 15.973 3 18.519C3 20.796 4.21105 22 6.50305 22H14.4969C16.7889 22 18 20.796 18 18.519C18 15.973 16.56 13 12.5 13Z" fill="white"/>
</svg>
