<svg width="33" height="4" viewBox="0 0 33 4" fill="none" xmlns="http://www.w3.org/2000/svg">
<path d="M2.82324 3.96423C2.25658 3.96423 1.79824 3.78923 1.44824 3.43923C1.11491 3.08923 0.948242 2.63923 0.948242 2.08923C0.948242 1.5559 1.11491 1.12257 1.44824 0.789233C1.79824 0.439233 2.25658 0.264233 2.82324 0.264233C3.40658 0.264233 3.85658 0.439233 4.17324 0.789233C4.50658 1.12257 4.67324 1.5559 4.67324 2.08923C4.67324 2.63923 4.50658 3.08923 4.17324 3.43923C3.85658 3.78923 3.40658 3.96423 2.82324 3.96423ZM16.5244 3.96423C15.9577 3.96423 15.4994 3.78923 15.1494 3.43923C14.8161 3.08923 14.6494 2.63923 14.6494 2.08923C14.6494 1.5559 14.8161 1.12257 15.1494 0.789233C15.4994 0.439233 15.9577 0.264233 16.5244 0.264233C17.1077 0.264233 17.5577 0.439233 17.8744 0.789233C18.2077 1.12257 18.3744 1.5559 18.3744 2.08923C18.3744 2.63923 18.2077 3.08923 17.8744 3.43923C17.5577 3.78923 17.1077 3.96423 16.5244 3.96423ZM30.2256 3.96423C29.6589 3.96423 29.2006 3.78923 28.8506 3.43923C28.5173 3.08923 28.3506 2.63923 28.3506 2.08923C28.3506 1.5559 28.5173 1.12257 28.8506 0.789233C29.2006 0.439233 29.6589 0.264233 30.2256 0.264233C30.8089 0.264233 31.2589 0.439233 31.5756 0.789233C31.9089 1.12257 32.0756 1.5559 32.0756 2.08923C32.0756 2.63923 31.9089 3.08923 31.5756 3.43923C31.2589 3.78923 30.8089 3.96423 30.2256 3.96423Z" fill="#1B1F26" fill-opacity="0.72"/>
</svg>
