<svg width="20" height="20" viewBox="0 0 20 20" fill="none" xmlns="http://www.w3.org/2000/svg">
<g clip-path="url(#clip0_1_47248)">
<path d="M19.1961 7.79402H18.4154V7.7538H9.69231V11.6307H15.1699C14.3708 13.8876 12.2235 15.5076 9.69231 15.5076C6.48076 15.5076 3.87692 12.9038 3.87692 9.69226C3.87692 6.48071 6.48076 3.87688 9.69231 3.87688C11.1747 3.87688 12.5234 4.43612 13.5503 5.34962L16.2918 2.60815C14.5608 0.994869 12.2453 -4.673e-05 9.69231 -4.673e-05C4.33973 -4.673e-05 0 4.33968 0 9.69226C0 15.0448 4.33973 19.3846 9.69231 19.3846C15.0449 19.3846 19.3846 15.0448 19.3846 9.69226C19.3846 9.04239 19.3177 8.40803 19.1961 7.79402Z" fill="#FFC107"/>
<path d="M1.11743 5.18098L4.30184 7.51634C5.16349 5.38306 7.25024 3.87688 9.69222 3.87688C11.1747 3.87688 12.5233 4.43612 13.5502 5.34962L16.2917 2.60815C14.5607 0.994869 12.2452 -4.673e-05 9.69222 -4.673e-05C5.9694 -4.673e-05 2.74089 2.10173 1.11743 5.18098Z" fill="#FF3D00"/>
<path d="M9.6923 19.3845C12.1958 19.3845 14.4706 18.4265 16.1905 16.8684L13.1907 14.33C12.2176 15.0671 11.008 15.5076 9.6923 15.5076C7.17133 15.5076 5.03078 13.9001 4.22438 11.6569L1.06372 14.0921C2.6678 17.2309 5.92538 19.3845 9.6923 19.3845Z" fill="#4CAF50"/>
<path d="M19.1962 7.79403H18.4155V7.7538H9.69238V11.6307H15.17C14.7862 12.7148 14.0888 13.6496 13.1894 14.3305C13.1899 14.33 13.1903 14.33 13.1908 14.3295L16.1906 16.868C15.9783 17.0608 19.3847 14.5384 19.3847 9.69226C19.3847 9.0424 19.3178 8.40803 19.1962 7.79403Z" fill="#1976D2"/>
</g>
<defs>
<clipPath id="clip0_1_47248">
<rect width="19.3846" height="19.3846" fill="white"/>
</clipPath>
</defs>
</svg>
