<svg width="26" height="25" viewBox="0 0 26 25" fill="none" xmlns="http://www.w3.org/2000/svg">
<path d="M9.81118 21.652V4.47601C9.81118 3.92373 10.2589 3.47601 10.8112 3.47601H15.3743C15.9266 3.47601 16.3743 3.92373 16.3743 4.47601V21.652M9.81118 21.652L9.81293 11.3322C9.81303 10.7798 9.36529 10.332 8.81293 10.332H4.25C3.69772 10.332 3.25 10.7797 3.25 11.332V20.652C3.25 21.2043 3.69772 21.652 4.25 21.652H9.81118ZM9.81118 21.652H16.3743M16.3743 21.652V16.652C16.3743 16.0997 16.822 15.652 17.3743 15.652H21.75C22.3023 15.652 22.75 16.0997 22.75 16.652V20.652C22.75 21.2043 22.3023 21.652 21.75 21.652H16.3743Z" stroke="#0F9BE9" stroke-width="2" stroke-linecap="round" stroke-linejoin="round"/>
</svg>
