<svg width="183" height="52" viewBox="0 0 183 52" fill="none" xmlns="http://www.w3.org/2000/svg">
<path d="M34.3363 50H0.0199203V0.986328H9.82949V40.1904H34.3363V50ZM84.3768 25.6982C84.3768 28.0225 84.0691 30.2669 83.4539 32.4316C82.8615 34.5736 82.0184 36.5902 80.9246 38.4814C79.8309 40.3499 78.5092 42.0589 76.9598 43.6084C75.4103 45.1579 73.7013 46.4909 71.8328 47.6074C69.9643 48.7012 67.9477 49.5443 65.783 50.1367C63.6183 50.752 61.3738 51.0596 59.0496 51.0596C56.7254 51.0596 54.4809 50.752 52.3162 50.1367C50.1743 49.5443 48.1577 48.7012 46.2664 47.6074C44.3979 46.4909 42.6889 45.1579 41.1395 43.6084C39.59 42.0589 38.257 40.3499 37.1404 38.4814C36.0467 36.5902 35.1922 34.5736 34.577 32.4316C33.9845 30.2669 33.6883 28.0225 33.6883 25.6982C33.6883 23.374 33.9845 21.1296 34.577 18.9648C35.1922 16.8001 36.0467 14.7835 37.1404 12.915C38.257 11.0465 39.59 9.33757 41.1395 7.78809C42.6889 6.23861 44.3979 4.91699 46.2664 3.82324C48.1577 2.72949 50.1743 1.88639 52.3162 1.29395C54.4809 0.678711 56.7254 0.371094 59.0496 0.371094C61.3738 0.371094 63.6183 0.678711 65.783 1.29395C67.9477 1.88639 69.9643 2.72949 71.8328 3.82324C73.7013 4.91699 75.4103 6.23861 76.9598 7.78809C78.5092 9.33757 79.8309 11.0465 80.9246 12.915C82.0184 14.7835 82.8615 16.8001 83.4539 18.9648C84.0691 21.1296 84.3768 23.374 84.3768 25.6982ZM74.6355 25.6982C74.6355 23.5563 74.2254 21.5397 73.4051 19.6484C72.5848 17.7344 71.4682 16.0824 70.0555 14.6924C68.6655 13.2796 67.0135 12.1631 65.0994 11.3428C63.2081 10.5225 61.1915 10.1123 59.0496 10.1123C56.8849 10.1123 54.8569 10.5225 52.9656 11.3428C51.0743 12.1631 49.4223 13.2796 48.0096 14.6924C46.5968 16.0824 45.4803 17.7344 44.66 19.6484C43.8396 21.5397 43.4295 23.5563 43.4295 25.6982C43.4295 27.8402 43.8396 29.8568 44.66 31.748C45.4803 33.6165 46.5968 35.2572 48.0096 36.6699C49.4223 38.0827 51.0743 39.1992 52.9656 40.0195C54.8569 40.8398 56.8849 41.25 59.0496 41.25C61.1915 41.25 63.2081 40.8398 65.0994 40.0195C67.0135 39.1992 68.6655 38.0827 70.0555 36.6699C71.4682 35.2572 72.5848 33.6165 73.4051 31.748C74.2254 29.8568 74.6355 27.8402 74.6355 25.6982ZM128.436 45.0439C126.157 46.9808 123.616 48.4733 120.814 49.5215C118.011 50.5469 115.094 51.0596 112.064 51.0596C109.739 51.0596 107.495 50.752 105.33 50.1367C103.188 49.5443 101.183 48.7012 99.3146 47.6074C97.4462 46.4909 95.7372 45.1693 94.1877 43.6426C92.6382 42.0931 91.3166 40.3841 90.2228 38.5156C89.1291 36.6243 88.2746 34.5964 87.6594 32.4316C87.0669 30.2669 86.7707 28.0225 86.7707 25.6982C86.7707 23.374 87.0669 21.141 87.6594 18.999C88.2746 16.8571 89.1291 14.8519 90.2228 12.9834C91.3166 11.0921 92.6382 9.38314 94.1877 7.85645C95.7372 6.30697 97.4462 4.98535 99.3146 3.8916C101.183 2.79785 103.188 1.95475 105.33 1.3623C107.495 0.74707 109.739 0.439453 112.064 0.439453C115.094 0.439453 118.011 0.963542 120.814 2.01172C123.616 3.03711 126.157 4.51823 128.436 6.45508L123.309 15C121.828 13.4961 120.119 12.3226 118.182 11.4795C116.245 10.6136 114.206 10.1807 112.064 10.1807C109.922 10.1807 107.905 10.5908 106.014 11.4111C104.145 12.2314 102.505 13.348 101.092 14.7607C99.6792 16.1507 98.5627 17.7913 97.7424 19.6826C96.9221 21.5511 96.5119 23.5563 96.5119 25.6982C96.5119 27.863 96.9221 29.891 97.7424 31.7822C98.5627 33.6735 99.6792 35.3255 101.092 36.7383C102.505 38.151 104.145 39.2676 106.014 40.0879C107.905 40.9082 109.922 41.3184 112.064 41.3184C113.294 41.3184 114.49 41.1702 115.653 40.874C116.815 40.5778 117.92 40.1676 118.968 39.6436V25.6982H128.436V45.0439ZM182.612 25.6982C182.612 28.0225 182.304 30.2669 181.689 32.4316C181.097 34.5736 180.254 36.5902 179.16 38.4814C178.066 40.3499 176.744 42.0589 175.195 43.6084C173.645 45.1579 171.936 46.4909 170.068 47.6074C168.199 48.7012 166.183 49.5443 164.018 50.1367C161.853 50.752 159.609 51.0596 157.285 51.0596C154.961 51.0596 152.716 50.752 150.551 50.1367C148.409 49.5443 146.393 48.7012 144.502 47.6074C142.633 46.4909 140.924 45.1579 139.375 43.6084C137.825 42.0589 136.492 40.3499 135.376 38.4814C134.282 36.5902 133.427 34.5736 132.812 32.4316C132.22 30.2669 131.923 28.0225 131.923 25.6982C131.923 23.374 132.22 21.1296 132.812 18.9648C133.427 16.8001 134.282 14.7835 135.376 12.915C136.492 11.0465 137.825 9.33757 139.375 7.78809C140.924 6.23861 142.633 4.91699 144.502 3.82324C146.393 2.72949 148.409 1.88639 150.551 1.29395C152.716 0.678711 154.961 0.371094 157.285 0.371094C159.609 0.371094 161.853 0.678711 164.018 1.29395C166.183 1.88639 168.199 2.72949 170.068 3.82324C171.936 4.91699 173.645 6.23861 175.195 7.78809C176.744 9.33757 178.066 11.0465 179.16 12.915C180.254 14.7835 181.097 16.8001 181.689 18.9648C182.304 21.1296 182.612 23.374 182.612 25.6982ZM172.871 25.6982C172.871 23.5563 172.461 21.5397 171.64 19.6484C170.82 17.7344 169.703 16.0824 168.291 14.6924C166.901 13.2796 165.249 12.1631 163.335 11.3428C161.443 10.5225 159.427 10.1123 157.285 10.1123C155.12 10.1123 153.092 10.5225 151.201 11.3428C149.309 12.1631 147.657 13.2796 146.245 14.6924C144.832 16.0824 143.715 17.7344 142.895 19.6484C142.075 21.5397 141.665 23.5563 141.665 25.6982C141.665 27.8402 142.075 29.8568 142.895 31.748C143.715 33.6165 144.832 35.2572 146.245 36.6699C147.657 38.0827 149.309 39.1992 151.201 40.0195C153.092 40.8398 155.12 41.25 157.285 41.25C159.427 41.25 161.443 40.8398 163.335 40.0195C165.249 39.1992 166.901 38.0827 168.291 36.6699C169.703 35.2572 170.82 33.6165 171.64 31.748C172.461 29.8568 172.871 27.8402 172.871 25.6982Z" fill="#1C73A3"/>
</svg>
