<svg width="24" height="21" viewBox="0 0 24 21" fill="none" xmlns="http://www.w3.org/2000/svg">
<path d="M16.4119 7.99938V6.24999C16.4119 4.02299 14.4252 2.21249 11.9814 2.21249C9.53771 2.21249 7.55102 4.02299 7.55102 6.24999V7.99938C6.1538 8.19743 5.45239 9.02864 5.45239 10.5V15.6C5.45239 17.3 6.38511 18.15 8.25056 18.15H15.7123C17.5778 18.15 18.5105 17.3 18.5105 15.6V10.5C18.5105 9.02864 17.8091 8.19743 16.4119 7.99938ZM12.681 13.039V14.75C12.681 15.1019 12.3676 15.3875 11.9814 15.3875C11.5953 15.3875 11.2819 15.1019 11.2819 14.75V13.0176C11.0133 12.823 10.8294 12.5357 10.8294 12.2C10.8294 11.6135 11.3472 11.1375 11.9908 11.1375H12.0001C12.6437 11.1375 13.166 11.6135 13.166 12.2C13.166 12.5502 12.9673 12.846 12.681 13.039ZM15.0128 7.94999H8.9501V6.24999C8.9501 4.72849 10.3119 3.48749 11.9814 3.48749C13.651 3.48749 15.0128 4.72849 15.0128 6.24999V7.94999Z" fill="#0F9BE9"/>
</svg>
