<svg width="24" height="24" viewBox="0 0 24 24" fill="none" xmlns="http://www.w3.org/2000/svg">
<path d="M21.9165 10.5833H13.4165V2.08333C13.4165 1.30133 12.7818 0.666664 11.9998 0.666664C11.2178 0.666664 10.5832 1.30133 10.5832 2.08333V10.5833H2.08317C1.30117 10.5833 0.666504 11.218 0.666504 12C0.666504 12.782 1.30117 13.4167 2.08317 13.4167H10.5832V21.9167C10.5832 22.6987 11.2178 23.3333 11.9998 23.3333C12.7818 23.3333 13.4165 22.6987 13.4165 21.9167V13.4167H21.9165C22.6985 13.4167 23.3332 12.782 23.3332 12C23.3332 11.218 22.6985 10.5833 21.9165 10.5833Z" fill="url(#paint0_linear_309_597)"/>
<defs>
<linearGradient id="paint0_linear_309_597" x1="11.9998" y1="0.666664" x2="11.9998" y2="23.3333" gradientUnits="userSpaceOnUse">
<stop stop-color="#6DC3F2"/>
<stop offset="1" stop-color="#0289F2"/>
</linearGradient>
</defs>
</svg>
