<svg width="48" height="48" viewBox="0 0 48 48" fill="none" xmlns="http://www.w3.org/2000/svg">
<rect width="48" height="48" rx="24" fill="white" fill-opacity="0.8"/>
<rect x="0.5" y="0.5" width="47" height="47" rx="23.5" stroke="white" stroke-opacity="0.2"/>
<path d="M29.6 20.1H31.3C31.7509 20.1 32.1831 20.2791 32.502 20.5979C32.8208 20.9167 33 21.3491 33 21.8V30.3C33 30.7509 32.8208 31.1833 32.502 31.5021C32.1831 31.8209 31.7509 32 31.3 32H17.7C17.2491 32 16.8167 31.8209 16.4978 31.5021C16.179 31.1833 16 30.7509 16 30.3V21.8C16 21.3491 16.179 20.9167 16.4978 20.5979C16.8167 20.2791 17.2491 20.1 17.7 20.1H19.4" stroke="#1B1F26" stroke-opacity="0.72" stroke-width="2" stroke-miterlimit="10"/>
<path d="M24.5 15V27.75" stroke="#1B1F26" stroke-opacity="0.72" stroke-width="2" stroke-miterlimit="10"/>
<path d="M20.25 23.5L24.5 27.75L28.75 23.5" stroke="#1B1F26" stroke-opacity="0.72" stroke-width="2" stroke-linejoin="round"/>
</svg>
