<svg width="20" height="20" viewBox="0 0 20 20" fill="none" xmlns="http://www.w3.org/2000/svg">
<path d="M19.53 18.47L15.689 14.629C16.973 13.106 17.75 11.143 17.75 9C17.75 4.175 13.825 0.25 9 0.25C4.175 0.25 0.25 4.175 0.25 9C0.25 13.825 4.175 17.75 9 17.75C11.143 17.75 13.106 16.973 14.629 15.689L18.47 19.53C18.616 19.676 18.808 19.75 19 19.75C19.192 19.75 19.384 19.677 19.53 19.53C19.823 19.238 19.823 18.763 19.53 18.47ZM1.75 9C1.75 5.002 5.002 1.75 9 1.75C12.998 1.75 16.25 5.002 16.25 9C16.25 12.998 12.998 16.25 9 16.25C5.002 16.25 1.75 12.998 1.75 9ZM12 6.75H6C5.586 6.75 5.25 7.086 5.25 7.5C5.25 7.914 5.586 8.25 6 8.25H12C12.414 8.25 12.75 7.914 12.75 7.5C12.75 7.086 12.414 6.75 12 6.75ZM10 9.75H6C5.586 9.75 5.25 10.086 5.25 10.5C5.25 10.914 5.586 11.25 6 11.25H10C10.414 11.25 10.75 10.914 10.75 10.5C10.75 10.086 10.414 9.75 10 9.75Z" fill="#1C75BC"/>
</svg>
