<svg width="48" height="48" viewBox="0 0 48 48" fill="none" xmlns="http://www.w3.org/2000/svg">
<rect width="48" height="48" rx="24" fill="white" fill-opacity="0.8"/>
<rect x="0.5" y="0.5" width="47" height="47" rx="23.5" stroke="white" stroke-opacity="0.2"/>
<path d="M33.5658 26.8167C32.5583 26.2317 31.9408 25.1592 31.9408 24C31.9408 22.8408 32.5583 21.7683 33.5658 21.1833C33.7392 21.075 33.8042 20.8583 33.6958 20.685L31.8867 17.565C31.8217 17.4458 31.7025 17.3808 31.5833 17.3808C31.5183 17.3808 31.4533 17.4025 31.3992 17.435C30.9008 17.7167 30.3375 17.8683 29.7742 17.8683C29.2 17.8683 28.6367 17.7167 28.1275 17.4242C27.12 16.8392 26.5025 15.7775 26.5025 14.6183C26.5025 14.4125 26.34 14.25 26.145 14.25H21.855C21.66 14.25 21.4975 14.4125 21.4975 14.6183C21.4975 15.7775 20.88 16.8392 19.8725 17.4242C19.3633 17.7167 18.8 17.8683 18.2258 17.8683C17.6625 17.8683 17.0992 17.7167 16.6008 17.435C16.4275 17.3267 16.2108 17.3917 16.1133 17.565L14.2933 20.685C14.2608 20.7392 14.25 20.8042 14.25 20.8583C14.25 20.9883 14.315 21.1075 14.4342 21.1833C15.4417 21.7683 16.0592 22.83 16.0592 23.9892C16.0592 25.1592 15.4417 26.2317 14.445 26.8167H14.4342C14.2608 26.925 14.1958 27.1417 14.3042 27.315L16.1133 30.435C16.1783 30.5542 16.2975 30.6192 16.4167 30.6192C16.4817 30.6192 16.5467 30.5975 16.6008 30.565C17.6192 29.9908 18.865 29.9908 19.8725 30.5758C20.8692 31.1608 21.4867 32.2225 21.4867 33.3817C21.4867 33.5875 21.6492 33.75 21.855 33.75H26.145C26.34 33.75 26.5025 33.5875 26.5025 33.3817C26.5025 32.2225 27.12 31.1608 28.1275 30.5758C28.6367 30.2833 29.2 30.1317 29.7742 30.1317C30.3375 30.1317 30.9008 30.2833 31.3992 30.565C31.5725 30.6733 31.7892 30.6083 31.8867 30.435L33.7067 27.315C33.7392 27.2608 33.75 27.1958 33.75 27.1417C33.75 27.0117 33.685 26.8925 33.5658 26.8167ZM24 27.25C22.2017 27.25 20.75 25.7983 20.75 24C20.75 22.2017 22.2017 20.75 24 20.75C25.7983 20.75 27.25 22.2017 27.25 24C27.25 25.7983 25.7983 27.25 24 27.25Z" fill="#2578A7"/>
</svg>
