<svg width="25" height="24" viewBox="0 0 25 24" fill="none" xmlns="http://www.w3.org/2000/svg">
<path d="M20.2937 8.75195C19.9897 9.70695 19.2098 10.482 18.2528 10.781C16.7048 11.265 15.2327 10.601 14.4967 9.43201C14.4387 9.34001 14.4427 9.22403 14.4957 9.12903C14.9307 8.35303 15.1777 7.457 15.1777 6.5C15.1777 6.168 15.1487 5.84398 15.0907 5.52698C15.0717 5.42298 15.1037 5.31497 15.1847 5.24597C15.7397 4.77497 16.4578 4.5 17.2278 4.5C19.3438 4.5 20.9937 6.55095 20.2937 8.75195ZM18.7767 12.28H16.7968C16.6268 12.28 16.4967 12.41 16.4967 12.58C16.4967 12.66 16.5268 12.74 16.5868 12.79C16.5968 12.8 16.6067 12.8099 16.6167 12.8199C18.0167 14.1699 18.6667 16.1 18.6667 18.02C18.6667 18.39 18.6468 18.75 18.5868 19.08C18.5768 19.124 18.5737 19.161 18.5737 19.201C18.5737 19.371 18.7067 19.5 18.8667 19.5H20.3268C22.1568 19.5 23.1667 18.5001 23.1667 16.6801C23.1667 14.6501 22.0167 12.28 18.7767 12.28ZM9.67676 2.5C7.46676 2.5 5.67676 4.29 5.67676 6.5C5.67676 8.71 7.46676 10.5 9.67676 10.5C11.8768 10.5 13.6768 8.71 13.6768 6.5C13.6768 4.29 11.8768 2.5 9.67676 2.5ZM11.6667 12.5H7.66675C3.60675 12.5 2.16675 15.47 2.16675 18.02C2.16675 20.3 3.37675 21.5 5.66675 21.5H13.6667C15.9567 21.5 17.1667 20.3 17.1667 18.02C17.1667 15.47 15.7267 12.5 11.6667 12.5Z" fill="#A6A6A6"/>
</svg>
