<svg width="24" height="25" viewBox="0 0 24 25" fill="none" xmlns="http://www.w3.org/2000/svg">
<path d="M12.0201 6.24913C10.9161 6.24913 10.0151 5.31592 10.0151 4.16607C10.0151 3.01622 10.9051 2.08301 12.0101 2.08301H12.0201C13.1241 2.08301 14.0201 3.01622 14.0201 4.16607C14.0201 5.31592 13.1251 6.24913 12.0201 6.24913ZM14.0201 12.4983C14.0201 11.3485 13.1241 10.4152 12.0201 10.4152H12.0101C10.9061 10.4152 10.0151 11.3485 10.0151 12.4983C10.0151 13.6482 10.9151 14.5814 12.0201 14.5814C13.1251 14.5814 14.0201 13.6482 14.0201 12.4983ZM14.0201 20.8306C14.0201 19.6807 13.1241 18.7475 12.0201 18.7475H12.0101C10.9061 18.7475 10.0151 19.6807 10.0151 20.8306C10.0151 21.9804 10.9151 22.9136 12.0201 22.9136C13.1251 22.9136 14.0201 21.9804 14.0201 20.8306Z" fill="#FC9300"/>
</svg>
