<svg width="23" height="23" viewBox="0 0 23 23" fill="none" xmlns="http://www.w3.org/2000/svg">
<path d="M11.3747 1.89587C6.14217 1.89587 1.89551 6.14254 1.89551 11.375C1.89551 16.6075 6.14217 20.8542 11.3747 20.8542C16.6072 20.8542 20.8538 16.6075 20.8538 11.375C20.8538 6.14254 16.6072 1.89587 11.3747 1.89587ZM15.1948 9.6688L10.768 14.0861C10.6353 14.2283 10.4552 14.2946 10.2656 14.2946C10.0855 14.2946 9.90539 14.2283 9.7632 14.0861L7.55457 11.8775C7.27968 11.6026 7.27968 11.1475 7.55457 10.8726C7.82947 10.5977 8.28446 10.5977 8.55936 10.8726L10.2656 12.5789L14.19 8.66401C14.4649 8.37964 14.9199 8.37964 15.1948 8.66401C15.4697 8.93891 15.4697 9.38443 15.1948 9.6688Z" fill="#34C759"/>
</svg>
